<?xml version="1.0" encoding="iso-8859-1"?>
<!-- Generator: Adobe Illustrator 19.0.0, SVG Export Plug-In . SVG Version: 6.00 Build 0)  -->
<svg xmlns="http://www.w3.org/2000/svg" xmlns:xlink="http://www.w3.org/1999/xlink" version="1.1" id="Layer_1" x="0px" y="0px" viewBox="0 0 512.16 512.16" style="enable-background:new 0 0 512.16 512.16;" xml:space="preserve" width="512" height="512">
<g>
	<path d="M332.599,90H301.08V60h120V30H298.5c-6.192-17.458-22.865-30-42.42-30s-36.228,12.542-42.42,30H91.08v30h120v30h-31.519   l6.833,70.72L0.08,213.669V300h199.771l9.004,93.19l-57.775,28.888v90.082l105-35l105,35v-90.082l-57.775-28.888l9.004-93.19   H512.08v-86.331L325.766,160.72L332.599,90z M30.08,270v-33.669l159.247-45.256L196.953,270H30.08z M241.08,45   c0-8.271,6.729-15,15-15s15,6.729,15,15v45h-30V45z M299.561,120l-2.899,30h-81.165l-2.899-30H299.561z M331.08,440.619v29.918   l-75-25l-75,25v-29.918l59.617-29.809L218.396,180h75.367l-22.301,230.81L331.08,440.619z M482.08,236.331V270H315.207   l7.626-78.925L482.08,236.331z"/>
</g>















</svg>
