<?xml version="1.0" encoding="iso-8859-1"?>
<!-- Generator: Adobe Illustrator 19.0.0, SVG Export Plug-In . SVG Version: 6.00 Build 0)  -->
<svg version="1.1" id="Layer_1" xmlns="http://www.w3.org/2000/svg" xmlns:xlink="http://www.w3.org/1999/xlink" x="0px" y="0px"
	 viewBox="0 0 512 512" style="enable-background:new 0 0 512 512;" xml:space="preserve">
<g transform="translate(1 1)">
	<g>
		<g>
			<path d="M442.733,297.667c5.12,0,8.533-3.413,8.533-8.533s-3.413-8.533-8.533-8.533s-8.533,3.413-8.533,8.533
				S437.613,297.667,442.733,297.667z"/>
			<path d="M485.4,92.867c5.12,0,8.533-3.413,8.533-8.533c0-5.12-3.413-8.533-8.533-8.533s-8.533,3.413-8.533,8.533
				C476.867,89.453,480.28,92.867,485.4,92.867z"/>
			<path d="M24.6,408.6c-5.12,0-8.533,3.413-8.533,8.533s3.413,8.533,8.533,8.533s8.533-3.413,8.533-8.533S29.72,408.6,24.6,408.6z"
				/>
			<path d="M75.8,195.267c-5.12,0-8.533,3.413-8.533,8.533c0,5.12,3.413,8.533,8.533,8.533s8.533-3.413,8.533-8.533
				C84.333,198.68,80.92,195.267,75.8,195.267z"/>
			<path d="M75.8,33.133c-14.507,0-25.6-11.093-25.6-25.6C50.2,2.413,46.787-1,41.667-1s-8.533,3.413-8.533,8.533
				c0,14.507-11.093,25.6-25.6,25.6C2.413,33.133-1,36.547-1,41.667S2.413,50.2,7.533,50.2c14.507,0,25.6,11.093,25.6,25.6
				c0,5.12,3.413,8.533,8.533,8.533S50.2,80.92,50.2,75.8c0-14.507,11.093-25.6,25.6-25.6c5.12,0,8.533-3.413,8.533-8.533
				S80.92,33.133,75.8,33.133z M41.667,50.2c-2.56-3.413-5.12-5.973-8.533-8.533c3.413-2.56,5.973-5.12,8.533-8.533
				c2.56,3.413,5.12,5.973,8.533,8.533C46.787,44.227,44.227,46.787,41.667,50.2z"/>
			<path d="M502.467,451.267h-13.653l-20.48-20.48v-13.653c0-5.12-3.413-8.533-8.533-8.533c-5.12,0-8.533,3.413-8.533,8.533v13.653
				l-20.48,20.48h-13.653c-5.12,0-8.533,3.413-8.533,8.533c0,5.12,3.413,8.533,8.533,8.533h13.653l20.48,20.48v13.653
				c0,5.12,3.413,8.533,8.533,8.533c5.12,0,8.533-3.413,8.533-8.533v-13.653l20.48-20.48h13.653c5.12,0,8.533-3.413,8.533-8.533
				C511,454.68,507.587,451.267,502.467,451.267z M459.8,473.453L446.147,459.8l13.653-13.653l13.653,13.653L459.8,473.453z"/>
			<path d="M355.757,266.402c0.788-14.72,0.79-25.919,0.79-29.322c0-20.48-0.853-40.96-2.56-60.587
				c-3.413-35.84-11.947-69.12-25.6-98.133c-13.21-28.255-27.838-46.72-40.36-58.665c-0.165-0.158-0.329-0.314-0.493-0.47
				c-0.083-0.078-0.166-0.157-0.248-0.235C272.403,4.901,260.685,0.278,258.049-0.792c-0.242-0.099-0.407-0.167-0.489-0.208
				c-1.707,0-3.413,0-5.12,0c-1.707,0.853-40.107,13.653-71.68,80.213c-13.653,29.013-22.187,62.293-25.6,98.133
				c-1.707,19.627-2.56,40.107-2.56,60.587c0,3.238,0.001,14.926,0.837,30.307c-10.947,7.889-43.504,37.875-43.504,98.546v34.133
				c0,6.827,3.413,11.947,9.387,15.36c2.56,0.853,5.12,1.707,7.68,1.707c3.413,0,6.827-1.707,11.093-4.267l48.853-34.049
				c5.71,4.624,14.54,10.268,26.998,14.506c-13.038,17.712-14.001,41.918-1.611,60.503l35.84,52.907
				C249.88,509.293,252.44,511,255,511s5.12-1.707,7.68-3.413l34.987-52.907c12.626-19.728,11.376-44.557-2.377-61.679
				c12.001-4.212,20.545-9.709,26.109-14.224l51.361,35.797c3.413,2.56,6.827,3.413,10.24,3.413c2.56,0,5.12-0.853,7.68-2.56
				c5.973-3.413,9.387-8.533,9.387-15.36v-34.133C400.067,302.337,364.297,272.459,355.757,266.402z M255.729,17.293
				c0.197,0.103,0.403,0.212,0.616,0.326c0.035,0.019,0.07,0.038,0.106,0.057c3.655,1.976,9.581,5.702,16.722,12.091
				c8.151,7.343,17.866,18.256,27.636,34.233C287.223,71.585,271.955,75.8,255,75.8c-16.955,0-32.223-4.215-45.809-11.8
				c9.77-15.976,19.485-26.89,27.636-34.233c7.141-6.389,13.067-10.116,16.722-12.091c0.036-0.019,0.071-0.038,0.106-0.057
				c0.213-0.115,0.419-0.224,0.616-0.326c0.253-0.132,0.501-0.259,0.729-0.373C255.228,17.034,255.476,17.161,255.729,17.293z
				 M172.227,179.053c3.413-33.28,11.947-64.853,24.747-92.16c1.321-2.838,2.655-5.554,3.994-8.177
				c15.684,9.25,34.547,14.151,54.032,14.151c19.486,0,38.348-4.901,54.032-14.151c1.34,2.623,2.673,5.339,3.994,8.177
				c13.653,27.307,21.333,58.027,24.747,92.16c1.707,18.773,2.56,38.4,2.56,58.88c0,27.307-3.413,102.4-23.04,122.88l-0.853,0.853
				l-0.853,0.853c-0.302,0.302-0.568,0.639-0.816,0.989c-3.371,3.407-12.007,10.751-27.344,15.224
				c0.324-3.565,0.648-7.255,0.925-11.02c0.521-6.248,0.782-12.587,0.782-18.847c0-40.96-11.093-85.333-34.133-85.333
				c-23.04,0-34.133,44.373-34.133,85.333c0,7.025,0.327,14.151,0.984,21.136c0.228,2.739,0.474,5.387,0.723,7.877
				c-12.907-3.764-21.065-9.222-25.336-12.958c-0.426-1.236-1.079-2.364-1.97-3.255l-0.853-0.853l-0.853-0.853
				c-11.093-11.093-18.773-42.667-22.187-86.187c0-1.489-0.001-2.329-0.568-3.086c-0.858-13.216-1.139-24.942-1.139-32.754
				C169.667,218.307,170.52,197.827,172.227,179.053z M255,417.133c-0.606,0-4.656-3.022-8.787-13.635
				c-4.276-11.408-8.28-29.813-8.28-54.632c0-42.98,12.009-66.745,16.64-68.196c4.631,1.45,16.64,25.216,16.64,68.196
				c0,13.653-0.853,27.307-3.413,39.253c0,0.447,0.036,0.925,0.088,1.411c-1.786,7.835-3.933,14.048-6.016,18.584
				C258.476,414.981,255.512,417.133,255,417.133z M127,400.067v-34.133c0-40.699,16.005-65.385,27.929-77.417
				c2.614,27.816,8.167,60.033,19.952,77.95L127,400.067z M284.013,445.293l-28.16,41.813l-28.16-41.813
				c-9.361-12.765-8.536-29.771,0.778-40.866c0.862,2.683,1.798,5.242,2.808,7.652c5.451,13.39,12.878,20.855,21.445,21.97
				c0.056,0.007,0.111,0.018,0.167,0.025c0.266,0.032,0.534,0.054,0.802,0.073c0.084,0.006,0.166,0.017,0.25,0.022
				c0.35,0.021,0.702,0.032,1.056,0.032s0.706-0.011,1.056-0.032c0.083-0.005,0.165-0.016,0.248-0.022
				c0.269-0.02,0.539-0.041,0.806-0.074c0.051-0.006,0.1-0.016,0.151-0.022c10.113-1.306,18.747-11.439,25.899-29.717
				C291.693,415.427,292.547,432.493,284.013,445.293z M383,400.92l-48.64-34.133c10.24-15.36,17.067-40.96,20.48-77.653
				C366.787,301.08,383,325.827,383,366.787V400.92z"/>
			<path d="M255,246.467c37.547,0,68.267-30.72,68.267-68.267s-30.72-68.267-68.267-68.267c-37.547,0-68.267,30.72-68.267,68.267
				S217.453,246.467,255,246.467z M255,127c28.16,0,51.2,23.04,51.2,51.2s-23.04,51.2-51.2,51.2c-28.16,0-51.2-23.04-51.2-51.2
				S226.84,127,255,127z"/>
			<path d="M255,212.333c18.773,0,34.133-15.36,34.133-34.133s-15.36-34.133-34.133-34.133c-18.773,0-34.133,15.36-34.133,34.133
				S236.227,212.333,255,212.333z M255,161.133c9.387,0,17.067,7.68,17.067,17.067s-7.68,17.067-17.067,17.067
				s-17.067-7.68-17.067-17.067S245.613,161.133,255,161.133z"/>
		</g>
	</g>
</g>
<g>
</g>
<g>
</g>
<g>
</g>
<g>
</g>
<g>
</g>
<g>
</g>
<g>
</g>
<g>
</g>
<g>
</g>
<g>
</g>
<g>
</g>
<g>
</g>
<g>
</g>
<g>
</g>
<g>
</g>
</svg>
